<?xml version="1.0" encoding="UTF-8" standalone="no"?>
<!DOCTYPE svg PUBLIC "-//W3C//DTD SVG 1.0//EN" "http://www.w3.org/TR/2001/PR-SVG-20010719/DTD/svg10.dtd">
<svg width="54cm" height="32cm" viewBox="224 174 1076 623" xmlns="http://www.w3.org/2000/svg" xmlns:xlink="http://www.w3.org/1999/xlink">
  <image x="852" y="175" width="225" height="168.533" xlink:href="file:///home/carson/Desktop/Edinburgh%20Mres/Diagram_Pictures/radianpro.jpg"/>
  <g>
    <line style="fill: none; fill-opacity:0; stroke-width: 2; stroke: #000000" x1="1005" y1="387" x2="793.14" y2="583.381"/>
    <polygon style="fill: #000000" points="787.64,588.48 791.575,578.015 793.14,583.381 798.373,585.349 "/>
    <polygon style="fill: none; fill-opacity:0; stroke-width: 2; stroke: #000000" points="787.64,588.48 791.575,578.015 793.14,583.381 798.373,585.349 "/>
  </g>
  <g>
    <text font-size="14.1111" style="fill: #000000;text-anchor:start;font-family:sans-serif;font-style:normal;font-weight:normal" x="828" y="514">
      <tspan x="828" y="514"></tspan>
    </text>
    <g>
      <rect style="fill: #ffffff" x="812" y="473" width="190" height="48"/>
      <rect style="fill: none; fill-opacity:0; stroke-width: 2; stroke: #000000" x="812" y="473" width="190" height="48"/>
    </g>
    <text font-size="14.1111" style="fill: #000000;text-anchor:start;font-family:sans-serif;font-style:normal;font-weight:normal" x="907" y="497">
      <tspan x="907" y="497"></tspan>
    </text>
    <text font-size="14.1111" style="fill: #000000;text-anchor:start;font-family:sans-serif;font-style:normal;font-weight:normal" x="829.5" y="504">
      <tspan x="829.5" y="504">Telemetry from Aircraft</tspan>
    </text>
  </g>
  <g>
    <g>
      <ellipse style="fill: #ffffff" cx="320" cy="265" rx="95" ry="54"/>
      <ellipse style="fill: none; fill-opacity:0; stroke-width: 2; stroke: #000000" cx="320" cy="265" rx="95" ry="54"/>
    </g>
    <text font-size="14.1111" style="fill: #000000;text-anchor:start;font-family:sans-serif;font-style:normal;font-weight:normal" x="291" y="274">
      <tspan x="291" y="274">ROS Node</tspan>
      <tspan x="291" y="291.639"></tspan>
      <tspan x="291" y="309.278"></tspan>
    </text>
  </g>
  <g>
    <line style="fill: none; fill-opacity:0; stroke-width: 2; stroke: #000000" x1="522" y1="603" x2="334.105" y2="369.584"/>
    <polygon style="fill: #000000" points="329.402,363.742 339.568,368.396 334.105,369.584 331.778,374.667 "/>
    <polygon style="fill: none; fill-opacity:0; stroke-width: 2; stroke: #000000" points="329.402,363.742 339.568,368.396 334.105,369.584 331.778,374.667 "/>
  </g>
  <g>
    <text font-size="14.1111" style="fill: #000000;text-anchor:start;font-family:sans-serif;font-style:normal;font-weight:normal" x="355" y="539">
      <tspan x="355" y="539"></tspan>
    </text>
    <g>
      <rect style="fill: #ffffff" x="339" y="498" width="190" height="48"/>
      <rect style="fill: none; fill-opacity:0; stroke-width: 2; stroke: #000000" x="339" y="498" width="190" height="48"/>
    </g>
    <text font-size="14.1111" style="fill: #000000;text-anchor:start;font-family:sans-serif;font-style:normal;font-weight:normal" x="434" y="522">
      <tspan x="434" y="522"></tspan>
    </text>
    <text font-size="14.1111" style="fill: #000000;text-anchor:start;font-family:sans-serif;font-style:normal;font-weight:normal" x="356.5" y="529">
      <tspan x="356.5" y="529">Telemetry from Aircraft</tspan>
    </text>
  </g>
  <g>
    <line style="fill: none; fill-opacity:0; stroke-width: 2; stroke: #000000" x1="702" y1="520" x2="881.7" y2="361.442"/>
    <polygon style="fill: #000000" points="887.323,356.479 883.133,366.845 881.7,361.442 876.517,359.346 "/>
    <polygon style="fill: none; fill-opacity:0; stroke-width: 2; stroke: #000000" points="887.323,356.479 883.133,366.845 881.7,361.442 876.517,359.346 "/>
  </g>
  <g>
    <ellipse style="fill: #ffffff" cx="669.5" cy="666.5" rx="129.5" ry="129.5"/>
    <ellipse style="fill: none; fill-opacity:0; stroke-width: 2; stroke: #000000" cx="669.5" cy="666.5" rx="129.5" ry="129.5"/>
  </g>
  <g>
    <line style="fill: none; fill-opacity:0; stroke-width: 2; stroke: #000000" x1="412" y1="314" x2="596.891" y2="543.419"/>
    <polygon style="fill: #000000" points="601.597,549.259 591.429,544.61 596.891,543.419 599.215,538.335 "/>
    <polygon style="fill: none; fill-opacity:0; stroke-width: 2; stroke: #000000" points="601.597,549.259 591.429,544.61 596.891,543.419 599.215,538.335 "/>
  </g>
  <g>
    <rect style="fill: #ffffff" x="433" y="408" width="175" height="36"/>
    <rect style="fill: none; fill-opacity:0; stroke-width: 3; stroke: #000000" x="433" y="408" width="175" height="36"/>
  </g>
  <text font-size="14.1111" style="fill: #000000;text-anchor:start;font-family:sans-serif;font-style:normal;font-weight:normal" x="467.5" y="429">
    <tspan x="467.5" y="429">Processed Data</tspan>
  </text>
  <g>
    <rect style="fill: #ffffff" x="705" y="412" width="183" height="40"/>
    <rect style="fill: none; fill-opacity:0; stroke-width: 3; stroke: #000000" x="705" y="412" width="183" height="40"/>
  </g>
  <text font-size="14.1111" style="fill: #000000;text-anchor:start;font-family:sans-serif;font-style:normal;font-weight:normal" x="744.5" y="437">
    <tspan x="744.5" y="437">New Waypoints</tspan>
  </text>
  <g>
    <rect style="fill: #ffffff" x="819" y="670" width="201" height="44"/>
    <rect style="fill: none; fill-opacity:0; stroke-width: 3; stroke: #000000" x="819" y="670" width="201" height="44"/>
  </g>
  <text font-size="14.1111" style="fill: #000000;text-anchor:start;font-family:sans-serif;font-style:normal;font-weight:normal" x="836.5" y="697">
    <tspan x="836.5" y="697">Ground Station/Receiver</tspan>
  </text>
  <g>
    <rect style="fill: #ffffff" x="1119" y="307" width="179" height="36"/>
    <rect style="fill: none; fill-opacity:0; stroke-width: 3; stroke: #000000" x="1119" y="307" width="179" height="36"/>
  </g>
  <text font-size="14.1111" style="fill: #000000;text-anchor:start;font-family:sans-serif;font-style:normal;font-weight:normal" x="1137.5" y="328">
    <tspan x="1137.5" y="328">Airframe and Sensors</tspan>
  </text>
  <image x="555" y="602" width="164" height="126.177" xlink:href="file:///home/carson/Desktop/Edinburgh%20Mres/Diagram_Pictures/laptop3.png"/>
  <image x="710" y="622" width="61.6659" height="78" xlink:href="file:///home/carson/Desktop/Edinburgh%20Mres/Diagram_Pictures/wireless_wifi_symbol_clip_art_16861.jpg"/>
</svg>
